<svg width="23" height="22" viewBox="0 0 23 22" fill="none" xmlns="http://www.w3.org/2000/svg">
<g clip-path="url(#clip0)">
<path d="M18.4881 1.18042C17.6889 1.36085 16.886 1.54212 16.5873 2.03885L14.2758 6.4124L1.86411 9.21454L1.36124 10.612L10.8589 11.4648L9.24751 15.251L5.64557 16.0642L4.74123 17.5523L7.33976 17.8202L7.63608 19.0372C7.76883 19.4686 8.23478 19.7566 8.63249 19.6668L9.83314 19.3958L11.2249 21.6493L12.1293 20.1613L11.2403 16.5103L13.8482 13.3537L18.8242 21.6469L19.8276 20.5657L16.7654 7.98882L19.5775 3.93156C19.8799 3.43399 19.6827 2.62393 19.4845 1.81006C19.3863 1.40693 18.8858 1.09063 18.4881 1.18042Z" fill="#1D2E5B"/>
</g>
<defs>
<clipPath id="clip0">
<rect width="22.8468" height="22" fill="white" transform="translate(0.0769043)"/>
</clipPath>
</defs>
</svg>
